<svg xmlns="http://www.w3.org/2000/svg" viewBox="0 0 400 300" width="406" height="306" class="illustration styles_illustrationTablet__1DWOa"><g id="_578_team_meeting_outline" data-name="#578_team_meeting_outline"><path d="M230.17,147.47H136.22a1,1,0,0,1-1-1V70a1,1,0,0,1,1-1h93.95a1,1,0,0,1,1,1V85.16a1,1,0,0,1-2,0V71H137.22v74.43h91.95V101.31a1,1,0,0,1,2,0v45.16A1,1,0,0,1,230.17,147.47Z" fill="#dfeaef"></path><path d="M145.05,180.7s2.2-1.11,3.93,4.09-.7,37.57-.7,37.57l-10.77-.4-3.75-34.65Z" fill="#ffc9b0"></path><path d="M148.28,223.36h0l-10.77-.4a1,1,0,0,1-.95-.9l-3.76-34.64a1,1,0,0,1,.49-1l11.29-6.62.06,0a2.52,2.52,0,0,1,2,0c1.34.56,2.45,2.13,3.3,4.66,1.77,5.33-.56,36.64-.66,38A1,1,0,0,1,148.28,223.36ZM138.41,221l8.94.34c.7-9.6,2-32.26.68-36.23-.82-2.47-1.67-3.19-2.1-3.41a.77.77,0,0,0-.45-.09l-10.66,6.25Z" fill="#093f68"></path><path d="M104.87,137.82h6.2a0,0,0,0,1,0,0v3.89a2.73,2.73,0,0,1-2.73,2.73h-.74a2.73,2.73,0,0,1-2.73-2.73v-3.89A0,0,0,0,1,104.87,137.82Z" transform="translate(9.53 -6.8) rotate(3.78)" fill="#ffc9b0"></path><path d="M108.3,145.46h-.24l-.74,0a3.75,3.75,0,0,1-3.48-4l.26-3.89a1,1,0,0,1,.34-.68,1,1,0,0,1,.72-.25l6.19.41a1,1,0,0,1,.68.34,1,1,0,0,1,.25.72L112,142A3.73,3.73,0,0,1,108.3,145.46Zm-.11-2a1.71,1.71,0,0,0,1.84-1.61l.19-2.89-4.19-.28-.19,2.89a1.73,1.73,0,0,0,1.61,1.84Z" fill="#093f68"></path><path d="M114.2,139.41c-3.73,1.25-7.8.34-11.22-1.38-1.78-.9-4.51-1.8-4.5-4.16a6.08,6.08,0,0,1,.9-2.87,21.69,21.69,0,0,0,2.66-6.61c.44-2.88-1-5.66-.12-8.59,1.48-5,8.14-6.26,12.52-7.19a9.31,9.31,0,0,1,3.27-.3c2.8.43,2.89,3.7,3.63,5.92l1.86,5.54C126,128,122.59,136.6,114.2,139.41Z" fill="#ffc9b0"></path><path d="M110.53,141a17.85,17.85,0,0,1-8-2.06l-.76-.36c-1.81-.86-4.3-2-4.29-4.69a7,7,0,0,1,1-3.35,20.93,20.93,0,0,0,2.55-6.29,12.1,12.1,0,0,0-.16-3.53,11.69,11.69,0,0,1,.07-5.19c1.6-5.4,8.38-6.84,12.86-7.79l.41-.09a9.87,9.87,0,0,1,3.64-.3c2.86.44,3.53,3.16,4,5.15.12.5.24,1,.39,1.43l1.85,5.54A17.48,17.48,0,0,1,123.8,132a15.23,15.23,0,0,1-9.28,8.33h0A12.53,12.53,0,0,1,110.53,141Zm6.4-31.72a11.38,11.38,0,0,0-2.28.32l-.41.09c-4.26.91-10.1,2.15-11.37,6.41a10.24,10.24,0,0,0,0,4.34,14.1,14.1,0,0,1,.16,4.12,22.55,22.55,0,0,1-2.78,6.94,5.4,5.4,0,0,0-.77,2.39c0,1.3,1.3,2,3.14,2.88l.81.39c3.71,1.87,7.42,2.34,10.45,1.32h0a13,13,0,0,0,8.08-7.23,15.49,15.49,0,0,0,.29-11.14l-1.86-5.54c-.16-.5-.3-1-.44-1.59-.52-2.13-1-3.44-2.39-3.66A4.44,4.44,0,0,0,116.93,109.26Z" fill="#093f68"></path><path d="M121,118.93s5.62,5,4.75,5.57a16.43,16.43,0,0,1-3.28,1.17" fill="#ffc9b0"></path><path d="M122.48,126.67a1,1,0,0,1-1-.76,1,1,0,0,1,.72-1.21c.63-.16,1.63-.46,2.34-.73a38.9,38.9,0,0,0-4.22-4.3,1,1,0,0,1,1.33-1.49c5.29,4.73,5.2,5.83,5.17,6.24a1.17,1.17,0,0,1-.55.92,16.09,16.09,0,0,1-3.58,1.29A.67.67,0,0,1,122.48,126.67Zm2.39-2.22h0Z" fill="#093f68"></path><path d="M103.07,120.75s-4.5-1.31-5.38,2.61,2.88,8.82,8.38,5.18" fill="#ffc9b0"></path><path d="M102.34,130.81a5.31,5.31,0,0,1-3.08-.95,6.55,6.55,0,0,1-2.54-6.72,4.29,4.29,0,0,1,2-2.93,6.52,6.52,0,0,1,4.62-.42,1,1,0,0,1-.56,1.92h0a4.55,4.55,0,0,0-3.05.22,2.38,2.38,0,0,0-1.07,1.65,4.57,4.57,0,0,0,1.72,4.63c1.38.95,3.2.77,5.13-.5a1,1,0,0,1,1.1,1.67A7.86,7.86,0,0,1,102.34,130.81Z" fill="#093f68"></path><path d="M111.11,117.89a2,2,0,0,1-.5-3.93l6.31-1.62a2,2,0,1,1,1,3.87l-6.31,1.62A1.75,1.75,0,0,1,111.11,117.89Z" fill="#093f68"></path><circle cx="117.03" cy="117.88" r="1.53" fill="#093f68"></circle><path d="M120.23,131a2.24,2.24,0,0,1-2.22.28" fill="#ffc9b0"></path><path d="M118.94,132.41a4.13,4.13,0,0,1-1.22-.2,1,1,0,0,1,.59-1.91,1.36,1.36,0,0,0,1.25-.06,1,1,0,0,1,1.39.09,1,1,0,0,1,0,1.36A2.87,2.87,0,0,1,118.94,132.41Z" fill="#093f68"></path><path d="M120.57,178.79l-26,1.91L92.74,153a11.61,11.61,0,0,1,11-12.15l2.77-.13a11.6,11.6,0,0,1,12.15,11Z" fill="#ffbc0e"></path><path d="M94.57,181.7a1,1,0,0,1-.66-.25,1,1,0,0,1-.34-.69L91.74,153a12.58,12.58,0,0,1,12-13.21l2.77-.14a12.62,12.62,0,0,1,13.2,12l1.89,27.08a1,1,0,0,1-.92,1.06l-26,1.9Zm12.53-40h-.52l-2.77.13a10.6,10.6,0,0,0-10.07,11.1l1.76,26.71,24-1.75-1.83-26.1A10.62,10.62,0,0,0,107.1,141.67Z" fill="#093f68"></path><path d="M95.89,182.1s1,9.09,8.43,9.88c6,.64,23.12.62,29.45.59,1.35,0,14.26-12.08,14.26-12.08-2.36-2.76-26.57-3.5-26.57-3.5Z" fill="#093f68"></path><path d="M128.82,193.58c-8,0-19.75-.09-24.61-.61-6.55-.69-8.95-7.34-9.31-10.76a1,1,0,0,1,.8-1.09L121.26,176l.23,0c5.78.18,24.84,1,27.3,3.85a1,1,0,0,1-.08,1.38c-13.19,12.34-14.5,12.35-14.93,12.35ZM97,182.89c.44,2.18,2.06,7.53,7.39,8.1,5.89.62,22.31.61,29.23.58,1.2-.53,7.21-5.78,12.76-10.94-3.32-1.28-14.54-2.31-24.87-2.63Z" fill="#093f68"></path><polygon points="137.51 221.96 137.51 229.96 155.97 229.96 148.28 222.36 137.51 221.96" fill="#ffbc0e"></polygon><path d="M156,231H137.51a1,1,0,0,1-1-1v-8a1,1,0,0,1,.31-.72,1,1,0,0,1,.73-.28l10.77.41a1,1,0,0,1,.66.28l7.69,7.59A1,1,0,0,1,156,231Zm-17.46-2h15l-5.68-5.61-9.34-.35Z" fill="#093f68"></path><path d="M116,144.83s11,15.16,14.27,15.13,12.21.72,12.21.72l2.55,6.93s-11.68,1.84-19.54,0-20.18-15-20.18-15" fill="#ffbc0e"></path><path d="M134.06,169.43a40.43,40.43,0,0,1-8.82-.84c-8.06-1.89-20.17-14.74-20.68-15.28a1,1,0,0,1,1.46-1.37c.12.13,12.2,12.95,19.68,14.7,6.12,1.43,14.78.55,17.94.15l-1.9-5.17c-2.08-.17-8.75-.7-11.48-.66h0c-3.56,0-12.43-11.89-15.07-15.54a1,1,0,0,1,1.63-1.17c5.11,7.08,11.7,14.71,13.43,14.71h.26c3.48,0,11.7.69,12.06.72a1,1,0,0,1,.85.66l2.55,6.93a1,1,0,0,1-.08.85,1,1,0,0,1-.71.48A79.55,79.55,0,0,1,134.06,169.43Z" fill="#093f68"></path><path d="M105.27,101.53c-5.63.13-11.69,1.63-15.63,5.91-4.16,4.52-4.22,11.89-2.7,17.54,1.48,5.5,4.83,11.5,9.34,15.07s11.24,3.9,17,2.65L108,122.54c-.65-2.45-1.71-5-.77-7.36,1.09-2.69,2.47-5.08,3.19-7.94a59.69,59.69,0,0,0,10.88,3.64c-1.77-3.13-3.5-5.86-6.79-7.46A20.14,20.14,0,0,0,105.27,101.53Z" fill="#725858"></path><path d="M107.12,144.38a18.17,18.17,0,0,1-11.46-3.55c-4.3-3.4-8-9.38-9.69-15.58-1.54-5.73-1.58-13.59,2.94-18.49s11.4-6.12,16.34-6.23a21.07,21.07,0,0,1,9.72,2c3.54,1.72,5.37,4.58,7.23,7.87a1,1,0,0,1-.06,1.09,1,1,0,0,1-1,.37,60.54,60.54,0,0,1-10-3.23,37.46,37.46,0,0,1-1.79,4.38c-.38.84-.77,1.68-1.12,2.55-.66,1.64-.12,3.51.45,5.48.12.42.24.84.35,1.26l5.3,20.15a1,1,0,0,1-.11.78,1,1,0,0,1-.64.45A31,31,0,0,1,107.12,144.38Zm-1.83-41.85c-4.55.1-10.83,1.15-14.91,5.59s-3.88,11.4-2.48,16.6c1.57,5.82,5,11.39,9,14.55,4.71,3.73,11.18,3.38,15.19,2.65l-5-19.13c-.11-.4-.22-.8-.34-1.2-.61-2.11-1.3-4.51-.38-6.79.36-.9.76-1.77,1.15-2.63a29.5,29.5,0,0,0,2-5.17,1,1,0,0,1,1.37-.67,59.55,59.55,0,0,0,8.4,3,12.55,12.55,0,0,0-5.15-5,19,19,0,0,0-8.81-1.79Zm0-1h0Z" fill="#093f68"></path><rect x="134.93" y="168.5" width="105.51" height="6.75" transform="translate(375.38 343.74) rotate(-180)" fill="#68e1fd"></rect><path d="M240.44,176.25H134.93a1,1,0,0,1-1-1V168.5a1,1,0,0,1,1-1H240.44a1,1,0,0,1,1,1v6.75A1,1,0,0,1,240.44,176.25Zm-104.51-2H239.44V169.5H135.93Z" fill="#093f68"></path><rect x="152.04" y="175.25" width="69.61" height="54.67" transform="translate(373.69 405.17) rotate(-180)" fill="#68e1fd"></rect><path d="M221.65,230.92H152a1,1,0,0,1-1-1V175.25a1,1,0,0,1,1-1h69.61a1,1,0,0,1,1,1v54.67A1,1,0,0,1,221.65,230.92Zm-68.61-2h67.61V176.25H153Z" fill="#093f68"></path><path d="M182.86,137.86h6a0,0,0,0,1,0,0v3.76a2.64,2.64,0,0,1-2.64,2.64h-.72a2.64,2.64,0,0,1-2.64-2.64v-3.76a0,0,0,0,1,0,0Z" transform="matrix(1, 0.07, -0.07, 1, 9.69, -11.93)" fill="#ffc9b0"></path><path d="M186.18,145.29h-.25l-.71-.05a3.63,3.63,0,0,1-3.39-3.87l.25-3.75a1,1,0,0,1,.34-.69,1,1,0,0,1,.72-.24l6,.39a1,1,0,0,1,.93,1.06l-.25,3.76a3.65,3.65,0,0,1-3.62,3.4ZM184,138.74l-.18,2.75a1.62,1.62,0,0,0,.4,1.19,1.57,1.57,0,0,0,1.12.55l.71.05h0a1.57,1.57,0,0,0,1.18-.4,1.64,1.64,0,0,0,.56-1.12L188,139Z" fill="#093f68"></path><path d="M190,107.06a2.74,2.74,0,0,1,1.37-.79c.93-.26,2-.52,2.41-1.4a2.39,2.39,0,0,0-.66-2.38,6,6,0,0,0-4.73-2,5.26,5.26,0,0,0,1.59-1.16,1.78,1.78,0,0,0,.32-1.86,2.3,2.3,0,0,0-1.45-1,8.88,8.88,0,0,0-7.31,1,5.24,5.24,0,0,0,1.15-2.12,1.78,1.78,0,0,0-.95-2,2.38,2.38,0,0,0-2,.5,12,12,0,0,0-5,7c-6.57,1.07-10.75,5.65-13.53,11.34-2.5,5.14-.71,10.59,1.81,15.36a26.65,26.65,0,0,0,10.44,10.34s9.64-2,12.58-9.37a51.44,51.44,0,0,0,2.76-12.64q.36-2.86.58-5.75C189.4,108.9,189.31,107.81,190,107.06Z" fill="#725858"></path><path d="M173.38,138.92a1,1,0,0,1-.45-.11A27.3,27.3,0,0,1,162.06,128c-2.18-4.11-4.74-10.28-1.83-16.25,3.24-6.66,7.83-10.62,13.64-11.79a13,13,0,0,1,5.28-7,3.43,3.43,0,0,1,2.87-.6,2.74,2.74,0,0,1,1.62,3,9.84,9.84,0,0,1,5.46.09,3.27,3.27,0,0,1,2,1.49,2.69,2.69,0,0,1-.34,2.81,6.83,6.83,0,0,1,3,2,3.29,3.29,0,0,1,.82,3.44c-.55,1.27-1.91,1.65-2.9,1.93l-.15,0a1.76,1.76,0,0,0-.88.47h0a3.35,3.35,0,0,0-.37,1.78c0,.24,0,.49,0,.75-.16,2-.36,4-.59,5.8a52.45,52.45,0,0,1-2.83,12.88c-3.09,7.73-12.88,9.89-13.29,10Zm7.85-44.66a1.93,1.93,0,0,0-1,.41,11,11,0,0,0-4.62,6.45,1,1,0,0,1-.81.74c-5.5.9-9.69,4.44-12.79,10.8-1.91,3.93-1.34,8.52,1.8,14.45a25.77,25.77,0,0,0,9.69,9.75c1.69-.45,9.11-2.71,11.51-8.69a50.23,50.23,0,0,0,2.7-12.38c.22-1.82.42-3.74.58-5.71,0-.24,0-.47,0-.69a4.65,4.65,0,0,1,.84-3h0a3.55,3.55,0,0,1,1.86-1.11l.15,0c.67-.19,1.43-.4,1.61-.8s-.14-.92-.5-1.32a5,5,0,0,0-3.92-1.66,1,1,0,0,1-.54-1.87,4.44,4.44,0,0,0,1.3-.92.83.83,0,0,0,.21-.77c-.06-.12-.26-.31-.85-.49a7.85,7.85,0,0,0-6.49.87,1,1,0,0,1-1.27-.17,1,1,0,0,1-.06-1.29,4.31,4.31,0,0,0,1-1.68c.07-.37-.08-.81-.3-.89Z" fill="#093f68"></path><path d="M187.69,140.26c-3.52,1.42-7.5.79-10.9-.68-1.77-.76-4.45-1.47-4.58-3.75a6,6,0,0,1,.69-2.82,39.27,39.27,0,0,0,2.35-8.06c.82-3.39,2.95.31,3.64,1.41a1.14,1.14,0,0,0,.4.44,1,1,0,0,0,.57,0,4.31,4.31,0,0,0,1.57-.54.79.79,0,0,0,.35-.35.77.77,0,0,0-.08-.53c-1.13-2.76-2.62-5.45-2.92-8.42-.46-4.66,3.12-4.69,6.29-6.63.42-.26,4.75-2.92,4.46-3.69l5.69,14.11C198.37,128.59,195.62,137.06,187.69,140.26Z" fill="#ffc9b0"></path><path d="M183.4,142.05a17.85,17.85,0,0,1-7-1.55l-.75-.31c-1.81-.72-4.28-1.7-4.43-4.3a6.82,6.82,0,0,1,.79-3.3,28.69,28.69,0,0,0,1.87-6.1c.13-.58.26-1.17.41-1.77.31-1.29.89-2,1.73-2.15,1.44-.22,2.57,1.39,3.61,3.07l.12.19v0a3.46,3.46,0,0,0,.93-.29c-.23-.53-.46-1.07-.7-1.6a22.56,22.56,0,0,1-2.19-6.86c-.42-4.23,2.21-5.42,4.53-6.46a20.21,20.21,0,0,0,2.23-1.12,19.12,19.12,0,0,0,4-2.92,1,1,0,0,1,1.93-.29l5.69,14.11c3.46,8.58,0,17.51-8.08,20.76h0A12.43,12.43,0,0,1,183.4,142.05Zm4.29-1.79h0Zm-11.3-15.6a2.74,2.74,0,0,0-.17.53c-.14.59-.27,1.17-.4,1.74a30.33,30.33,0,0,1-2,6.51,5,5,0,0,0-.6,2.33c.07,1.24,1.36,1.84,3.17,2.56l.8.33c3.68,1.59,7.28,1.82,10.14.67h0c7.13-2.88,10.06-10.52,7-18.16l-5-12.5a28.22,28.22,0,0,1-3.65,2.54,21.26,21.26,0,0,1-2.47,1.25c-2.35,1.06-3.64,1.64-3.36,4.44a20.58,20.58,0,0,0,2,6.25q.42.94.81,1.89a1.69,1.69,0,0,1,.1,1.24,1.61,1.61,0,0,1-.79.88,5.43,5.43,0,0,1-1.92.67,2,2,0,0,1-1.15-.13,2.09,2.09,0,0,1-.82-.81l-.12-.2A8.35,8.35,0,0,0,176.39,124.66Zm3.44,1.3Z" fill="#093f68"></path><circle cx="188.93" cy="118.52" r="1.41" fill="#093f68"></circle><path d="M192.62,117.71s5.71,4.51,4.9,5.1a15.56,15.56,0,0,1-3.1,1.31" fill="#ffc9b0"></path><path d="M194.42,125.12a1,1,0,0,1-.3-2,22.94,22.94,0,0,0,2.17-.82,38.68,38.68,0,0,0-4.29-3.86,1,1,0,0,1-.17-1.4,1,1,0,0,1,1.41-.17c5.39,4.27,5.37,5.35,5.36,5.75a1.21,1.21,0,0,1-.49,1,15.53,15.53,0,0,1-3.38,1.46A1.1,1.1,0,0,1,194.42,125.12Zm2.21-2.29h0Z" fill="#093f68"></path><path d="M175.87,122.91s-4.42-1-5,2.83,3.29,8.34,8.38,4.51" fill="#ffc9b0"></path><path d="M175.42,132.7a5.2,5.2,0,0,1-2.71-.75,6.36,6.36,0,0,1-2.86-6.37,4.23,4.23,0,0,1,1.78-3,6.37,6.37,0,0,1,4.46-.68,1,1,0,0,1,.75,1.2,1,1,0,0,1-1.19.75h0a4.34,4.34,0,0,0-2.9.39,2.27,2.27,0,0,0-.93,1.63,4.38,4.38,0,0,0,1.92,4.33c1.37.83,3.1.55,4.87-.78a1,1,0,0,1,1.21,1.6A7.38,7.38,0,0,1,175.42,132.7Z" fill="#093f68"></path><path d="M183.19,119a2,2,0,0,1-.61-3.9l6-1.93a2,2,0,0,1,1.23,3.81l-6,1.93A2.21,2.21,0,0,1,183.19,119Z" fill="#093f68"></path><path d="M193.65,129.16s-2.34,1.9-3.81,1.81" fill="#ffc9b0"></path><path d="M189.93,132h-.15a1,1,0,0,1,.11-2c.75,0,2.31-.92,3.13-1.59a1,1,0,0,1,1.41.15,1,1,0,0,1-.15,1.4C193.85,130.28,191.68,132,189.93,132Z" fill="#093f68"></path><path d="M198,177.46,172.9,179.3l-1.77-26.8a11.21,11.21,0,0,1,10.65-11.74l2.68-.13a11.21,11.21,0,0,1,11.74,10.65Z" fill="#70cc40"></path><path d="M172.9,180.3a1,1,0,0,1-.65-.25,1,1,0,0,1-.34-.69l-1.77-26.79a12.23,12.23,0,0,1,11.59-12.81l2.68-.13a12.22,12.22,0,0,1,12.79,11.6L199,177.39a1,1,0,0,1-.93,1.07L173,180.29ZM185,141.62h-.5l-2.68.13a10.22,10.22,0,0,0-9.7,10.69l1.71,25.78L197,176.54l-1.76-25.19A10.22,10.22,0,0,0,185,141.62Z" fill="#093f68"></path><polygon points="196.1 150.49 201.03 169.6 197.78 173.35 194.15 150.19 196.1 150.49" fill="#fff"></polygon><path d="M197.78,174.35a.86.86,0,0,1-.28,0,1,1,0,0,1-.71-.81l-3.63-23.15a1,1,0,0,1,.28-.86,1,1,0,0,1,.86-.29l1.95.3a1,1,0,0,1,.82.74L202,169.35a1,1,0,0,1-.21.9L198.53,174A1,1,0,0,1,197.78,174.35Zm-2.36-22.5,3,19.22,1.5-1.73Z" fill="#093f68"></path><path d="M195.49,150.13h0a1.41,1.41,0,0,0,.94-1.78l-.54-1.76a1.48,1.48,0,0,0-1.8-1h0a1.4,1.4,0,0,0-.94,1.78l.54,1.76A1.47,1.47,0,0,0,195.49,150.13Z" fill="#fff"></path><path d="M195.11,151.19a2.51,2.51,0,0,1-2.38-1.76l-.54-1.76a2.41,2.41,0,0,1,.18-1.88,2.37,2.37,0,0,1,1.45-1.16,2.5,2.5,0,0,1,3,1.67l.54,1.76a2.43,2.43,0,0,1-.18,1.87,2.4,2.4,0,0,1-1.45,1.16h0A2.14,2.14,0,0,1,195.11,151.19Zm.38-1.06h0Zm-1-3.59h-.12a.41.41,0,0,0-.24.19.44.44,0,0,0,0,.34l.54,1.76a.49.49,0,0,0,.57.33.4.4,0,0,0,.25-.19.42.42,0,0,0,0-.33l-.54-1.77A.5.5,0,0,0,194.49,146.54Z" fill="#093f68"></path><path d="M174.18,180.66s.92,8.78,8.14,9.54c5.84.62,20.64.6,26.76.57a2.43,2.43,0,0,1,2.45,2.31l.31,29.7,12.93-.2s2.08-40.82-.21-43.48-25.67-3.38-25.67-3.38Z" fill="#093f68"></path><path d="M211.84,223.78a1,1,0,0,1-.7-.28,1,1,0,0,1-.3-.71l-.31-29.7a1.43,1.43,0,0,0-1.44-1.32h0c-7.65,0-21.31,0-26.87-.57-6.35-.67-8.69-7.12-9-10.44a1,1,0,0,1,.8-1.08l24.7-4.94.23,0c5.59.17,24,.94,26.4,3.73.6.69,2.4,5.94.45,44.18a1,1,0,0,1-1,1l-12.93.2Zm-2.75-34a3.45,3.45,0,0,1,3.44,3.26l.3,28.74,11-.17c.94-19,1.25-39.92,0-41.87-1.22-1.42-13.81-2.67-24.82-3l-23.65,4.73c.44,2.11,2,7.22,7.11,7.76,5.47.57,19,.6,26.65.56Z" fill="#093f68"></path><polygon points="211.81 222.19 211.81 229.92 232.2 229.92 224.77 222.58 211.81 222.19" fill="#f56132"></polygon><path d="M232.2,230.92H211.81a1,1,0,0,1-1-1v-7.73a1,1,0,0,1,1-1l13,.39a1.05,1.05,0,0,1,.67.29l7.43,7.34a1,1,0,0,1,.22,1.09A1,1,0,0,1,232.2,230.92Zm-19.39-2h16.95l-5.41-5.35-11.54-.35Z" fill="#093f68"></path><path d="M209.37,171.9s5.91-.3,9,1,6.43,5.92,4.78,6.1-5.6-.28-7.08-.19c-.86.06-5.75-.37-5.75-.37Z" fill="#ffc9b0"></path><path d="M222.2,180.06c-.91,0-2-.07-3.09-.13s-2.32-.14-2.92-.1c-.89.06-5.08-.3-5.91-.37a1,1,0,0,1-.9-.85l-1-6.56a1,1,0,0,1,.94-1.15c.25,0,6.17-.29,9.49,1.1,2.87,1.21,6.08,4.94,5.81,6.77a1.42,1.42,0,0,1-1.31,1.24A9.12,9.12,0,0,1,222.2,180.06Zm-5.59-2.24c.71,0,1.64.06,2.62.11,1.13.07,2.38.15,3.26.13a10.59,10.59,0,0,0-4.46-4.22c-2.11-.88-5.69-1-7.5-1l.71,4.66c1.86.16,4.31.34,4.82.3Z" fill="#093f68"></path><rect x="170.65" y="191.37" width="39.5" height="8.43" rx="4.22" fill="#fff"></rect><path d="M205.93,200.8H174.87a5.22,5.22,0,1,1,0-10.43h31.06a5.22,5.22,0,1,1,0,10.43Zm-31.06-8.43a3.22,3.22,0,1,0,0,6.43h31.06a3.22,3.22,0,1,0,0-6.43Z" fill="#093f68"></path><rect x="148.37" y="155.74" width="37.75" height="8.43" rx="4.22" transform="translate(7.29 327.2) rotate(-90)" fill="#fff"></rect><path d="M167.25,179.83a5.22,5.22,0,0,1-5.22-5.21V145.3a5.22,5.22,0,1,1,10.43,0v29.32A5.22,5.22,0,0,1,167.25,179.83Zm0-37.75A3.22,3.22,0,0,0,164,145.3v29.32a3.22,3.22,0,0,0,6.43,0V145.3A3.22,3.22,0,0,0,167.25,142.08Z" fill="#093f68"></path><path d="M189.17,150.54s1.28,16,5.61,18,20,2.58,20,2.58l-.54,7s-20.55,3.77-27.36-1.89-7.26-18-7.26-18" fill="#70cc40"></path><path d="M200.63,180.3c-5.48,0-11.21-.74-14.35-3.35-7.06-5.87-7.59-18.23-7.61-18.76a1,1,0,0,1,1-1,1,1,0,0,1,1,1c0,.12.53,12,6.9,17.29,5.66,4.71,22.06,2.4,25.78,1.8l.4-5.18c-3.63-.16-15.53-.83-19.38-2.62-4.73-2.19-6.06-17.1-6.19-18.79a1,1,0,1,1,2-.16c.48,5.94,2.27,15.85,5,17.14,4.1,1.9,19.5,2.47,19.66,2.48a1,1,0,0,1,.71.33,1,1,0,0,1,.25.74l-.55,7a1,1,0,0,1-.81.91A85.45,85.45,0,0,1,200.63,180.3Z" fill="#093f68"></path><path d="M174.85,200.8h-.07c-8.58-.62-12.75-4.51-12.75-11.9V166.13a1,1,0,0,1,2,0V188.9c0,6.39,3.26,9.35,10.89,9.9a1,1,0,0,1-.07,2Z" fill="#093f68"></path><rect x="188.5" y="199.8" width="3.79" height="24.98" fill="#093f68"></rect><path d="M192.3,225.78h-3.8a1,1,0,0,1-1-1v-25a1,1,0,0,1,1-1h3.8a1,1,0,0,1,1,1v25A1,1,0,0,1,192.3,225.78Zm-2.8-2h1.8v-23h-1.8Z" fill="#093f68"></path><rect x="181.89" y="223.3" width="17.02" height="2.28" fill="#093f68"></rect><path d="M198.91,226.58h-17a1,1,0,0,1-1-1V223.3a1,1,0,0,1,1-1h17a1,1,0,0,1,1,1v2.28A1,1,0,0,1,198.91,226.58Zm-16-2h15v-.28h-15Z" fill="#093f68"></path><circle cx="181.71" cy="227.21" r="2.05" fill="#093f68"></circle><path d="M181.71,230.26a3.05,3.05,0,1,1,3-3A3.06,3.06,0,0,1,181.71,230.26Zm0-4.1a1,1,0,1,0,1,1.05A1,1,0,0,0,181.71,226.16Z" fill="#093f68"></path><circle cx="199.09" cy="227.21" r="2.05" fill="#093f68"></circle><path d="M199.09,230.26a3.05,3.05,0,1,1,3-3A3.06,3.06,0,0,1,199.09,230.26Zm0-4.1a1,1,0,1,0,1,1.05A1,1,0,0,0,199.09,226.16Z" fill="#093f68"></path><rect x="92.2" y="191.37" width="39.5" height="8.43" rx="4.22" fill="#fff"></rect><path d="M127.48,200.8H96.41a5.22,5.22,0,0,1,0-10.43h31.07a5.22,5.22,0,0,1,0,10.43Zm-31.07-8.43a3.22,3.22,0,0,0,0,6.43h31.07a3.22,3.22,0,0,0,0-6.43Z" fill="#093f68"></path><rect x="69.91" y="155.74" width="37.75" height="8.43" rx="4.22" transform="translate(-71.17 248.75) rotate(-90)" fill="#fff"></rect><path d="M88.79,179.83a5.22,5.22,0,0,1-5.22-5.21V145.3a5.22,5.22,0,1,1,10.44,0v29.32A5.22,5.22,0,0,1,88.79,179.83Zm0-37.75a3.22,3.22,0,0,0-3.22,3.22v29.32a3.22,3.22,0,0,0,6.44,0V145.3A3.22,3.22,0,0,0,88.79,142.08Z" fill="#093f68"></path><path d="M96.4,200.8h-.08c-8.58-.62-12.75-4.51-12.75-11.9V166.13a1,1,0,0,1,2,0V188.9c0,6.39,3.26,9.35,10.9,9.9a1,1,0,0,1-.07,2Z" fill="#093f68"></path><rect x="110.05" y="199.8" width="3.79" height="24.98" fill="#093f68"></rect><path d="M113.84,225.78h-3.79a1,1,0,0,1-1-1v-25a1,1,0,0,1,1-1h3.79a1,1,0,0,1,1,1v25A1,1,0,0,1,113.84,225.78Zm-2.79-2h1.79v-23h-1.79Z" fill="#093f68"></path><rect x="103.44" y="223.3" width="17.02" height="2.28" fill="#093f68"></rect><path d="M120.45,226.58h-17a1,1,0,0,1-1-1V223.3a1,1,0,0,1,1-1h17a1,1,0,0,1,1,1v2.28A1,1,0,0,1,120.45,226.58Zm-16-2h15v-.28h-15Z" fill="#093f68"></path><circle cx="103.26" cy="227.21" r="2.05" fill="#093f68"></circle><path d="M103.26,230.26a3.05,3.05,0,1,1,3-3A3.06,3.06,0,0,1,103.26,230.26Zm0-4.1a1,1,0,1,0,1,1.05A1.06,1.06,0,0,0,103.26,226.16Z" fill="#093f68"></path><circle cx="120.63" cy="227.21" r="2.05" fill="#093f68"></circle><path d="M120.63,230.26a3.05,3.05,0,1,1,3.06-3A3.06,3.06,0,0,1,120.63,230.26Zm0-4.1a1.05,1.05,0,1,0,1.06,1.05A1,1,0,0,0,120.63,226.16Z" fill="#093f68"></path><path d="M142.46,160.68s7.61-2.63,10.67,0,6.44,6.82,4.07,6.93-10.3-.88-12.19,0Z" fill="#ffc9b0"></path><path d="M156.76,168.62c-.86,0-2.09-.07-3.47-.16-2.56-.16-6.84-.42-7.86.06a1,1,0,0,1-.8,0,1,1,0,0,1-.56-.58L141.52,161a1,1,0,0,1,0-.78,1,1,0,0,1,.58-.51c.83-.29,8.25-2.74,11.64.18.61.53,5.94,5.22,5.12,7.59a1.67,1.67,0,0,1-1.65,1.1Zm-8.59-2.38c1.45,0,3.22.1,5.24.22,1.4.09,2.72.18,3.51.16a18.08,18.08,0,0,0-4.45-5.18c-1.85-1.6-6.28-.8-8.71-.12l1.87,5.09A15.13,15.13,0,0,1,148.17,166.24Z" fill="#093f68"></path><polygon points="275.49 221.96 263.41 221.96 273.42 156.38 287.51 162.85 275.49 221.96" fill="#093f68"></polygon><path d="M275.49,223H263.41a1,1,0,0,1-1-1.16l10-65.57a1,1,0,0,1,.51-.73,1,1,0,0,1,.89,0l14.09,6.47a1,1,0,0,1,.56,1.11l-12,59.1A1,1,0,0,1,275.49,223Zm-10.92-2h10.1l11.7-57.54-12.16-5.58Z" fill="#093f68"></path><polygon points="302.02 221.96 292.63 221.96 289.32 163.66 303.02 162.85 302.02 221.96" fill="#093f68"></polygon><path d="M302,223h-9.39a1,1,0,0,1-1-1l-3.3-58.3a1,1,0,0,1,.94-1.05l13.69-.81a1,1,0,0,1,.75.27,1,1,0,0,1,.31.74L303,222A1,1,0,0,1,302,223Zm-8.44-2H301l1-57.05-11.62.68Z" fill="#093f68"></path><polygon points="303.02 173.78 275.95 173.78 273.42 156.38 301.78 156.47 303.02 173.78" fill="#093f68"></polygon><path d="M303,174.78H276a1,1,0,0,1-1-.86l-2.52-17.39a1,1,0,0,1,.23-.8,1,1,0,0,1,.75-.35h0l28.35.09a1,1,0,0,1,1,.93L304,173.71a1,1,0,0,1-.27.75A1,1,0,0,1,303,174.78Zm-26.21-2H302l-1.1-15.31-26.27-.08Z" fill="#093f68"></path><polygon points="275.49 221.96 273.88 229.92 255.53 229.92 265.54 221.96 275.49 221.96" fill="#68e1fd"></polygon><path d="M273.88,230.92H255.53a1,1,0,0,1-.62-1.78l10-8a1,1,0,0,1,.62-.21h9.95a1,1,0,0,1,.78.36,1,1,0,0,1,.2.83l-1.61,8A1,1,0,0,1,273.88,230.92Zm-15.49-2h14.67l1.21-6h-8.38Z" fill="#093f68"></path><polygon points="293.21 221.96 293.21 229.92 310.05 229.92 300.55 221.96 293.21 221.96" fill="#68e1fd"></polygon><path d="M310.05,230.92H293.21a1,1,0,0,1-1-1v-8a1,1,0,0,1,1-1h7.34a1,1,0,0,1,.65.23l9.49,8a1,1,0,0,1,.3,1.11A1,1,0,0,1,310.05,230.92Zm-15.84-2H307.3l-7.11-6h-6Z" fill="#093f68"></path><path d="M253,123.55s9,6,10.69,6.89c0,0,9.6-11.7,19.72-11.7h11.09c6.42,0,11.62,5.74,11.62,12.81v24.83H273.42V138.49c-4.54,2.58-7.11,4.09-9.19,4.57-2.93.68-6.39-1.59-15.94-11.41Z" fill="#fff"></path><path d="M306.15,157.38H273.42a1,1,0,0,1-1-1V140.21c-3.68,2.09-6,3.37-8,3.83-3.49.8-7.27-1.82-16.87-11.7a1,1,0,0,1-.15-1.2l4.73-8.1a1.09,1.09,0,0,1,.64-.47,1,1,0,0,1,.78.15c2.21,1.48,7.74,5.15,9.91,6.45,2.23-2.52,10.76-11.43,19.95-11.43h11.09c7,0,12.62,6.2,12.62,13.81v24.83A1,1,0,0,1,306.15,157.38Zm-31.73-2h30.73V131.55c0-6.51-4.76-11.81-10.62-11.81H283.44c-9.52,0-18.86,11.22-18.95,11.34a1,1,0,0,1-1.22.26c-1.41-.71-7.58-4.81-9.92-6.37l-3.81,6.53c8.39,8.59,11.94,11.17,14.46,10.59,1.81-.42,4.19-1.77,8.13-4l.8-.46a1,1,0,0,1,1,0,1,1,0,0,1,.49.87Z" fill="#093f68"></path><path d="M287.07,116.62h.87a2.44,2.44,0,0,1,2.44,2.44v3.31a0,0,0,0,1,0,0h-5.76a0,0,0,0,1,0,0v-3.31a2.44,2.44,0,0,1,2.44-2.44Z" transform="translate(543.28 297.02) rotate(-167.81)" fill="#ffc9b0"></path><path d="M287.84,123.46a3.63,3.63,0,0,1-.73-.08l-.85-.19h0a3.44,3.44,0,0,1-2.64-4.09l.7-3.24a1,1,0,0,1,1.19-.76l5.62,1.21a1,1,0,0,1,.77,1.19l-.7,3.24a3.44,3.44,0,0,1-3.36,2.72Zm-1.16-2.22.85.18a1.4,1.4,0,0,0,1.09-.19,1.47,1.47,0,0,0,.63-.91l.48-2.26-3.67-.8-.48,2.26a1.44,1.44,0,0,0,1.1,1.72Z" fill="#093f68"></path><ellipse cx="276.81" cy="98.43" rx="4.82" ry="4.31" transform="translate(122.13 348.2) rotate(-77.81)" fill="#ffc9b0"></ellipse><path d="M276.61,104.23a5.15,5.15,0,0,1-1-.11,5.6,5.6,0,0,1-4-6.81h0A5.34,5.34,0,1,1,282,99.55,5.73,5.73,0,0,1,276.61,104.23Zm-3-6.5a3.35,3.35,0,1,0,4-3,3.59,3.59,0,0,0-4,3Z" fill="#093f68"></path><path d="M305.55,110c-4.45,5.47-11.34,9.37-17.56,8a15.13,15.13,0,0,1-11.83-11.51,18.58,18.58,0,0,1,0-8.3s-.08-2,1.94-9.5,3.16-11.32,18.11-10.52c11.54.62,16.74,7.1,16,11.86-.44,2.78-1.12,6.8-2.09,10.44a3.52,3.52,0,0,1,2.34,2.42C313.7,106.67,310.9,111.76,305.55,110Z" fill="#ffc9b0"></path><path d="M290.5,119.31a13,13,0,0,1-2.72-.29,16.15,16.15,0,0,1-12.59-12.26,19.65,19.65,0,0,1-.07-8.64c0-.61.19-3.06,2-9.65,2.22-8.18,3.95-12.06,19.12-11.26,8.85.48,13.08,4.13,14.81,6.27a8.69,8.69,0,0,1,2.13,6.74c-.4,2.56-1,6.25-1.9,9.72a4.66,4.66,0,0,1,2.1,2.67,7,7,0,0,1-1.54,7,6.06,6.06,0,0,1-5.92,1.52C301.5,116.31,295.75,119.31,290.5,119.31Zm1.94-40.21c-10.73,0-11.63,3.33-13.41,9.9-1.92,7.06-1.91,9.18-1.91,9.2a1.94,1.94,0,0,1,0,.24,17.61,17.61,0,0,0,0,7.85,14.21,14.21,0,0,0,11.07,10.78c5.33,1.15,11.84-1.86,16.57-7.68a1,1,0,0,1,1.09-.32,4.1,4.1,0,0,0,4.53-.83,5,5,0,0,0,1.08-5,2.54,2.54,0,0,0-1.68-1.78,1,1,0,0,1-.68-1.22,103.48,103.48,0,0,0,2.07-10.34,6.73,6.73,0,0,0-1.7-5.17c-2.59-3.2-7.46-5.21-13.37-5.53C294.77,79.14,293.55,79.1,292.44,79.1Z" fill="#093f68"></path><circle cx="292.96" cy="99.02" r="1.56" transform="translate(134.3 364.46) rotate(-77.81)" fill="#093f68"></circle><circle cx="280.81" cy="95.74" r="1.56" fill="#093f68"></circle><path d="M287.53,103.31h-.1a16.14,16.14,0,0,1-3.91-.85,1.47,1.47,0,0,1-.93-1.12c-.22-1.33,1.55-3.19,3.08-4.51A1,1,0,1,1,287,98.33a13.74,13.74,0,0,0-2.25,2.43,16,16,0,0,0,2.89.55,1,1,0,0,1-.09,2Z" fill="#093f68"></path><path d="M288.2,106.67l-5.67-1.29s-.49,4.75,1.79,5.55S288.2,106.67,288.2,106.67Z" fill="#fff"></path><path d="M284.81,112a2.37,2.37,0,0,1-.82-.15c-2.94-1-2.51-6-2.45-6.6a1,1,0,0,1,1.21-.87l5.67,1.3a1,1,0,0,1,.73,1.27c-.12.39-1.24,3.79-3.18,4.76A2.59,2.59,0,0,1,284.81,112Zm-1.32-5.4c0,1.35.3,3.06,1.16,3.37a.54.54,0,0,0,.42,0,5.66,5.66,0,0,0,1.79-2.56Z" fill="#093f68"></path><line x1="273.42" y1="138.49" x2="273.42" y2="127.33" fill="#68e1fd"></line><path d="M273.42,139.49a1,1,0,0,1-1-1V127.33a1,1,0,1,1,2,0v11.16A1,1,0,0,1,273.42,139.49Z" fill="#093f68"></path><path d="M295.83,82.11a8.92,8.92,0,0,0,.26,7.26,13.23,13.23,0,0,1-9.82-9.59A15.74,15.74,0,0,0,283.51,86c-3-.46-6.37-2.28-6.68-5.33a5.77,5.77,0,0,1,3-5.24,13.74,13.74,0,0,1,6.09-1.61,46.24,46.24,0,0,1,21.28,3.37c2.51,1.05,5.1,2.48,6.27,4.94,1.35,2.86.34,6,.24,8.94a19.46,19.46,0,0,1-2.79,8.53c-.56,1-1.42,2-2.55,2a2.54,2.54,0,0,1-2.06-1.72,15.29,15.29,0,0,1-.6-2.78c-.78-3.62-4.23-5.38-6.31-8.26C298.63,87.83,295.3,83.41,295.83,82.11Z" fill="#725858"></path><path d="M308.4,102.62h-.09a3.48,3.48,0,0,1-2.95-2.35,9.5,9.5,0,0,1-.5-2.06c0-.29-.09-.59-.15-.88-.44-2-1.92-3.47-3.48-5a23,23,0,0,1-2.66-2.89l-.17-.23c-.91-1.25-1.64-2.32-2.2-3.23a7.75,7.75,0,0,0,.79,2.94,1,1,0,0,1-1.11,1.42A14.21,14.21,0,0,1,286,82.08a14.22,14.22,0,0,0-1.5,4.13,1,1,0,0,1-1.13.79c-3.48-.51-7.16-2.64-7.53-6.21a6.7,6.7,0,0,1,3.46-6.19,14.7,14.7,0,0,1,6.54-1.76,47.25,47.25,0,0,1,21.73,3.45c2.44,1,5.42,2.55,6.79,5.43,1.1,2.32.83,4.69.56,7-.1.84-.19,1.63-.22,2.42a20.58,20.58,0,0,1-2.92,9C310.6,102.17,309.31,102.62,308.4,102.62ZM296.77,82.45c0,.27.21,1.43,3.25,5.59l.17.23a19.9,19.9,0,0,0,2.43,2.64c1.71,1.65,3.48,3.37,4,6,.07.32.13.65.18,1a7.65,7.65,0,0,0,.37,1.63c.21.52.66,1.08,1.17,1.1h0c.68,0,1.31-.93,1.63-1.49a18.35,18.35,0,0,0,2.66-8.08c0-.87.13-1.74.23-2.58.25-2.1.48-4.09-.38-5.89-1.07-2.27-3.63-3.57-5.74-4.44A45.22,45.22,0,0,0,286,74.84a12.93,12.93,0,0,0-5.65,1.46,4.81,4.81,0,0,0-2.5,4.29c.22,2.21,2.56,3.68,4.92,4.26a16.8,16.8,0,0,1,2.72-5.67,1,1,0,0,1,1.77.36,12.2,12.2,0,0,0,7.23,8.29,10,10,0,0,1,.44-6.1h0a1,1,0,0,1,1.86.72Zm0,0Z" fill="#093f68"></path><rect x="284.84" y="122.95" width="4.18" height="3.53" rx="1.26" transform="translate(563.31 271.36) rotate(-175.54)" fill="#68e1fd"></rect><path d="M287.73,127.55h-.18l-1.66-.13h0a2.27,2.27,0,0,1-2.08-2.42l.08-1a2.28,2.28,0,0,1,2.43-2.08L288,122a2.28,2.28,0,0,1,2.08,2.43l-.08,1A2.26,2.26,0,0,1,287.73,127.55ZM286,125.42l1.67.12a.23.23,0,0,0,.19-.06.23.23,0,0,0,.08-.17l.08-1a.23.23,0,0,0-.06-.18.2.2,0,0,0-.17-.09l-1.67-.13a.26.26,0,0,0-.27.23l-.08,1a.26.26,0,0,0,.23.28Z" fill="#093f68"></path><polygon points="287.63 126.54 289.32 148.79 284.76 151.97 281.66 148.19 285.96 126.41 287.63 126.54" fill="#68e1fd"></polygon><path d="M284.76,153a1,1,0,0,1-.77-.36l-3.11-3.78a1,1,0,0,1-.21-.83L285,126.22a1,1,0,0,1,1.06-.8l1.67.12a1,1,0,0,1,.92.93l1.69,22.24a1,1,0,0,1-.42.9l-4.57,3.18A1,1,0,0,1,284.76,153Zm-2-5.05,2.22,2.7,3.34-2.33-1.57-20.54Z" fill="#093f68"></path><path d="M253,123.55l-4.74-3s-.62-6.68-1.47-7.22-1.87,5.56-1.87,5.56-4.25-8.59-6.13-5.56-2.89,6-2.21,7.22,11.68,11.1,11.68,11.1Z" fill="#ffc9b0"></path><path d="M248.29,132.65a1,1,0,0,1-.66-.26c-2.61-2.33-11.19-10.06-11.9-11.36-1.2-2.21,1.17-6.49,2.24-8.23a2.09,2.09,0,0,1,1.93-1.12c1.64.08,3.39,2.36,4.6,4.33.75-3.18,1.41-3.47,1.72-3.61a1.16,1.16,0,0,1,1.14.09c.34.21,1.22.78,1.88,7.48l4.32,2.73a1,1,0,0,1,.33,1.35l-4.73,8.1a1,1,0,0,1-.71.49Zm-8.47-19h0s-.05,0-.13.17c-2,3.31-2.5,5.63-2.18,6.22.51.82,6.2,6.09,10.56,10l3.63-6.2-3.92-2.48a1,1,0,0,1-.46-.76c-.16-1.65-.41-3.52-.67-4.86-.25,1-.51,2.18-.69,3.28a1,1,0,0,1-.84.82,1,1,0,0,1-1-.55C242.47,116.13,240.48,113.68,239.82,113.68Zm6.32.36Z" fill="#093f68"></path><polyline points="306.15 131.65 306.15 161.4 296.29 161.4 296.29 131.65" fill="#fff"></polyline><path d="M306.15,162.4h-9.86a1,1,0,0,1-1-1V131.65a1,1,0,0,1,2,0V160.4h7.86V131.65a1,1,0,1,1,2,0V161.4A1,1,0,0,1,306.15,162.4Z" fill="#093f68"></path><rect x="286.34" y="167.23" width="24.12" height="15.95" fill="#fff"></rect><path d="M310.45,184.18H286.33a1,1,0,0,1-1-1v-16a1,1,0,0,1,1-1h24.12a1,1,0,0,1,1,1v16A1,1,0,0,1,310.45,184.18Zm-23.12-2h22.12v-14H287.33Z" fill="#093f68"></path><path d="M296.29,161.4v4.3a16.23,16.23,0,0,0-1.36,4.08c-.43,2.3-.05,6,1.36,5.62s5.3-1,6.73-3.32,1.18-6.26,1.18-6.26l0-4.42Z" fill="#ffc9b0"></path><path d="M296.09,176.42a1.69,1.69,0,0,1-1.16-.47c-1.26-1.16-1.33-4.48-1-6.35a16.92,16.92,0,0,1,1.34-4.13V161.4a1,1,0,0,1,1-1h7.93a1,1,0,0,1,.71.3,1,1,0,0,1,.29.71l0,4.42c0,.11.26,4.24-1.33,6.78-1.46,2.34-4.85,3.15-6.68,3.59l-.64.16A1.82,1.82,0,0,1,296.09,176.42Zm.19-1.94h0Zm1-12.08v3.3a1,1,0,0,1-.12.46,15.8,15.8,0,0,0-1.25,3.8,8.36,8.36,0,0,0,.28,4.42l.53-.13c1.54-.37,4.41-1.05,5.44-2.7,1.25-2,1-5.63,1-5.66V162.4Zm-1,3.3h0Z" fill="#093f68"></path><path d="M284.57,91.91a2.08,2.08,0,0,1-.54-.08l-4.32-1.21a2,2,0,1,1,1.08-3.85L285.11,88a2,2,0,0,1-.54,3.93Z" fill="#093f68"></path><path d="M298.16,95.8a2.07,2.07,0,0,1-.5-.06l-6.18-1.62a2,2,0,1,1,1-3.87l6.18,1.62a2,2,0,0,1-.51,3.93Z" fill="#093f68"></path><path d="M327.8,230.92H72.19a1,1,0,0,1,0-2H327.8a1,1,0,0,1,0,2Z" fill="#093f68"></path><path d="M168.94,79.11H148a1,1,0,0,1,0-2h20.91a1,1,0,0,1,0,2Z" fill="#dfeaef"></path><path d="M189.84,79.11h-8.13a1,1,0,0,1,0-2h8.13a1,1,0,0,1,0,2Z" fill="#dfeaef"></path><path d="M239.79,102.31H223.64a1,1,0,0,1-1-1V85.16a1,1,0,0,1,1-1h16.15a1,1,0,0,1,1,1v16.15A1,1,0,0,1,239.79,102.31Zm-15.15-2h14.15V86.16H224.64Z" fill="#dfeaef"></path></g></svg>